# xmcd CD database file generated by OrangeCD 6.4
#
# Track frame offsets:
#	150
#	18424
#	28795
#	39139
#	52902
#	73496
#	91194
#	107788
#	117319
#	135956
#	153722
#	165940
#	181718
#	203815
#	220221
#	242240
#	258326
#	266744
#
# Disc length: 3825 seconds
#
# Revision: 5
# Processed by: cddbd v1.5.2PL0 Copyright (c) Steve Scherf et al.
# Submitted via: OrangeCD 6.4
#
DISCID=f30eef12
DTITLE=Jon Langford and The Pine Valley Cosmonauts - The Executioner's Last Songs
DTITLE=, Vol. 1
DYEAR=2002
DGENRE=Country
TTITLE0=Brett Sparks - Knoxville Girl
TTITLE1=Rosie Flores - I'll Never Get Out Of This World Alive
TTITLE2=Dean Schlabowske - Gary Gilmore's Eyes
TTITLE3=Janet Bean - The Snakes Crawl at Night
TTITLE4=Steve Earle - Tom Dooley
TTITLE5=Puerto Meurto - The Hangman's Song
TTITLE6=Lonesome Bob - Pardon Me (I've Got Someone To Kill)
TTITLE7=Neko Case - Poor Ellen Smith
TTITLE8=Jenny Toomey - Miss Otis Regrets
TTITLE9=Johnny Down and John Langford - Judgment Day
TTITLE10=Chris Ligon - Great State of Texas
TTITLE11=Edith Frost - Sing Me Back Home
TTITLE12=Diane Izzo - Oh Death
TTITLE13=Rick Cookin' Sherry - Hanged Man
TTITLE14=Jon Langford and Sally Timms - The Plans We Made
TTITLE15=Frankie and Johnny Navin - 25 Minutes to Go
TTITLE16=Tony Fitzpatrick - Idiot Whistle
TTITLE17=Paul Burch - Walls of Time
EXTD=
EXTT0=
EXTT1=
EXTT2=with Sally Timms, Kelly Hogan and Tracey Dear
EXTT3=
EXTT4=
EXTT5=
EXTT6=
EXTT7=
EXTT8=
EXTT9=
EXTT10=
EXTT11=
EXTT12=
EXTT13=
EXTT14=
EXTT15=
EXTT16=
EXTT17=
PLAYORDER=
